# xmcd
#
# Track frame offsets: 
#        150
#        15340
#        32187
#        50133
#        65091
#        83201
#        98315
#        116420
#        130240
#        146919
#        161225
#        177802
#
# Disc length: 2582 seconds
#
# Revision: 0
# Processed by: cddbd v1.5.2PL0 Copyright (c) Steve Scherf et al.
# Submitted via: ExactAudioCopyFreeDBPlugin 1.0
#
DISCID=a10a140c
DTITLE=Devin Dawson - Dark Horse
DYEAR=2018
DGENRE=Country
TTITLE0=Dip
TTITLE1=All On Me
TTITLE2=Asking For A Friend
TTITLE3=Second To Last
TTITLE4=Symptoms
TTITLE5=I Don't Care Who Sees
TTITLE6=Secondhand Hurt
TTITLE7=Placebo
TTITLE8=War Paint
TTITLE9=I Can't Trust Myself
TTITLE10=Prison
TTITLE11=Dark Horse
EXTD=
EXTT0=
EXTT1=
EXTT2=
EXTT3=
EXTT4=
EXTT5=
EXTT6=
EXTT7=
EXTT8=
EXTT9=
EXTT10=
EXTT11=
PLAYORDER=
